# xmcd
#
# Track frame offsets:
#	183
#	15925
#	38745
#	62100
#	83870
#	101235
#	116023
#	150375
#	175265
#
# Disc length: 2780 seconds
#
# Revision: 1
# Processed by: cddbd v1.5.2PL0 Copyright (c) Steve Scherf et al.
# Submitted via: audiograbber 1.83.01
#
DISCID=660ada09
DTITLE=B.B. King - Kansas City, 1972
DYEAR=1972
DGENRE=Blues
TTITLE0=Introduction
TTITLE1=The Thrill Is Gone
TTITLE2=Sweet Little Angel
TTITLE3=Nobody Loves Me But My Mother
TTITLE4=Guess Who
TTITLE5=King's Shuffle
TTITLE6=Outside Help
TTITLE7=I've Got a Mind to Give Up Living
TTITLE8=Ain't Nobody Home
EXTD=
EXTT0=
EXTT1=
EXTT2=
EXTT3=
EXTT4=
EXTT5=
EXTT6=
EXTT7=
EXTT8=
PLAYORDER=
